<svg width="60" height="1068" viewBox="0 0 60 1068" fill="none" xmlns="http://www.w3.org/2000/svg">
<circle cx="30" cy="30" r="29" stroke="#323232" stroke-width="2"/>
<circle cx="30" cy="30" r="14.5" fill="#323232" stroke="#323232"/>
<line x1="29.5" y1="60" x2="29.5" y2="112" stroke="#626262" stroke-width="3" stroke-dasharray="15 15"/>
<circle cx="30" cy="142" r="29" stroke="#323232" stroke-width="2"/>
<circle cx="30" cy="142" r="14.5" fill="#323232" stroke="#323232"/>
<line x1="29.5" y1="172" x2="29.5" y2="224" stroke="#626262" stroke-width="3" stroke-dasharray="15 15"/>
<circle cx="30" cy="254" r="29" stroke="#323232" stroke-width="2"/>
<circle cx="30" cy="254" r="14.5" fill="#323232" stroke="#323232"/>
<line x1="29.5" y1="284" x2="29.5" y2="336" stroke="#626262" stroke-width="3" stroke-dasharray="15 15"/>
<circle cx="30" cy="366" r="29" stroke="#323232" stroke-width="2"/>
<circle cx="30" cy="366" r="14.5" fill="#323232" stroke="#323232"/>
<line x1="29.5" y1="396" x2="29.5" y2="448" stroke="#626262" stroke-width="3" stroke-dasharray="15 15"/>
<circle cx="30" cy="478" r="29" stroke="#323232" stroke-width="2"/>
<circle cx="30" cy="478" r="14.5" fill="#323232" stroke="#323232"/>
<line x1="29.5" y1="508" x2="29.5" y2="560" stroke="#626262" stroke-width="3" stroke-dasharray="15 15"/>
<circle cx="30" cy="590" r="29" stroke="#323232" stroke-width="2"/>
<circle cx="30" cy="590" r="14.5" fill="#323232" stroke="#323232"/>
<line x1="29.5" y1="620" x2="29.5" y2="672" stroke="#626262" stroke-width="3" stroke-dasharray="15 15"/>
<circle cx="30" cy="702" r="29" stroke="#323232" stroke-width="2"/>
<circle cx="30" cy="702" r="14.5" fill="#323232" stroke="#323232"/>
<line x1="29.5" y1="732" x2="29.5" y2="784" stroke="#626262" stroke-width="3" stroke-dasharray="15 15"/>
<circle cx="30" cy="814" r="29" stroke="#323232" stroke-width="2"/>
<circle cx="30" cy="814" r="14.5" fill="#323232" stroke="#323232"/>
<line x1="29.5" y1="844" x2="29.5" y2="896" stroke="#626262" stroke-width="3" stroke-dasharray="15 15"/>
<circle cx="30" cy="926" r="29" stroke="#323232" stroke-width="2"/>
<circle cx="30" cy="926" r="14.5" fill="#323232" stroke="#323232"/>
<line x1="29.5" y1="956" x2="29.5" y2="1008" stroke="#626262" stroke-width="3" stroke-dasharray="15 15"/>
<circle cx="30" cy="1038" r="29" stroke="#323232" stroke-width="2"/>
<circle cx="30" cy="1038" r="14.5" fill="#323232" stroke="#323232"/>
</svg>
